  
http://www.imdb.com/title/tt0882977/



Plot: A father goes undercover for the DEA in order to free his son who was imprisoned after being set up in drug deal. 



Director:
 Ric Roman Waugh

Writers:
 Justin Haythe, Ric Roman Waugh

Stars:
 Dwayne Johnson, Susan Sarandon, Jon Bernthal

Genres:
 Action | Drama | Thriller 

Country:
USA 



Format                                   : AVI
Format/Info                              : Audio Video Interleave
Format profile                           : OpenDML
Format settings                          : rec
File size                                : 1.60 GiB
Duration                                 : 1h 51mn
Overall bit rate                         : 2 052 Kbps
Writing application                      : AVI-Mux GUI 1.17.8.3, Feb 16 201019:42:50

Video
ID                                       : 0
Format                                   : MPEG-4 Visual
Format profile                           : Advanced Simple@L5
Format settings, BVOP                    : 2
Format settings, QPel                    : No
Format settings, GMC                     : No warppoints
Format settings, Matrix                  : Default (H.263)
Muxing mode                              : Packed bitstream
Codec ID                                 : XVID
Codec ID/Hint                            : XviD
Duration                                 : 1h 51mn
Bit rate                                 : 1 598 Kbps
Width                                    : 720 pixels
Height                                   : 304 pixels
Display aspect ratio                     : 2.35:1
Frame rate                               : 23.976 fps
Color space                              : YUV
Chroma subsampling                       : 4:2:0
Bit depth                                : 8 bits
Scan type                                : Progressive
Compression mode                         : Lossy
Bits/(Pixel*Frame)                       : 0.305
Stream size                              : 1.25 GiB (78%)
Writing library                          : XviD 64

Audio
ID                                       : 1
Format                                   : AC-3
Format/Info                              : Audio Coding 3
Mode extension                           : CM (complete main)
Format settings, Endianness              : Big
Codec ID                                 : 2000
Duration                                 : 1h 51mn
Bit rate mode                            : Constant
Bit rate                                 : 448 Kbps
Channel(s)                               : 6 channels
Channel positions                        : Front: L C R, Side: L R, LFE
Sampling rate                            : 48.0 KHz
Bit depth                                : 16 bits
Compression mode                         : Lossy
Stream size                              : 358 MiB (22%)
Alignment                                : Aligned on interleaves
Interleave, duration                     : 64 ms (1.53 video frames)
Interleave, preload duration             : 192 ms
Title                                    : ams-snitch-1080p




    	http://addpix.net/viewer.php?file=56537352713989061759.jpg
    	http://addpix.net/viewer.php?file=76388671013595095355.jpg
    	http://addpix.net/viewer.php?file=30235775461690926090.jpg
    	http://addpix.net/viewer.php?file=47051104175363287870.jpg
    	http://addpix.net/viewer.php?file=66788374079052737541.jpg